<svg xmlns="http://www.w3.org/2000/svg" xmlns:xlink="http://www.w3.org/1999/xlink" width="164" height="80" viewBox="0 0 164 80">
    <defs>
        <radialGradient id="b" cx="0%" cy="0%" r="210.926%" fx="0%" fy="0%" gradientTransform="matrix(.4741 .4741 -.88047 .25528 0 0)">
            <stop offset="0%" stop-color="#648CED"/>
            <stop offset="100%" stop-color="#132F72"/>
        </radialGradient>
        <path id="a" d="M10 32.622v28.825l11.538 6.832 11.539-6.832V32.622h10v33.872L21.538 80 0 66.494V32.622h10zm17.692 0v25.353l-6.154 3.476-6.153-3.476V32.622h12.307zM0 16.69h43.077v11.38H0V16.69zM10.817 0h32.26v11.698H0v-.88C0 4.842 4.843 0 10.817 0z"/>
    </defs>
    <g fill="none" fill-rule="evenodd">
        <use fill="url(#b)" xlink:href="#a"/>
        <path fill="#0E0427" d="M62.874 33.22h-3.381V23.14h-3.676v-2.924H66.53v2.925h-3.656v10.08zm20.497 0h-9.613V20.216h9.613v2.925h-6.232v2.027h6.094v2.925H77.14v2.203h6.232v2.924zm14.01.234c-4.03 0-7.097-2.73-7.097-6.726 0-4.016 3.067-6.726 7.097-6.726 3.164 0 4.875 1.774 5.72 3.47l-2.91 1.384c-.432-1.033-1.552-1.89-2.81-1.89-2.143 0-3.657 1.617-3.657 3.762 0 2.125 1.514 3.763 3.657 3.763 1.258 0 2.378-.858 2.81-1.891l2.91 1.364c-.845 1.657-2.556 3.49-5.72 3.49zm24.998-.234h-3.381v-5.225h-5.445v5.225h-3.381V20.216h3.38v4.855h5.446v-4.855h3.38V33.22zm20.162 0h-3.263l-5.543-7.525v7.525h-3.381V20.216h3.48l5.307 7.155v-7.155h3.4V33.22zm14.325.234c-4.01 0-7.018-2.768-7.018-6.726s3.008-6.726 7.018-6.726 6.998 2.768 6.998 6.726-2.988 6.726-6.998 6.726zm0-2.963c2.162 0 3.558-1.657 3.558-3.763 0-2.125-1.396-3.763-3.558-3.763-2.163 0-3.578 1.638-3.578 3.763 0 2.106 1.415 3.763 3.578 3.763zM60.454 45.553h-.762v-6.068h4.009v.673h-3.247v1.956h3.183v.673h-3.183v2.766zm10.296 0h-.761v-6.068h.761v6.068zm11.113 0h-.9l-1.55-2.41h-1.229v2.41h-.761v-6.068h2.458c1.12 0 1.927.71 1.927 1.828 0 1.092-.762 1.693-1.596 1.765l1.65 2.475zm-2.073-3.075c.724 0 1.229-.482 1.229-1.165 0-.691-.505-1.155-1.23-1.155h-1.605v2.32h1.606zm12.47 3.075h-4.009v-6.068h4.01v.673h-3.248v1.956h3.183v.673h-3.183v2.093h3.247v.673zm19.471 0h-.945l-2.467-6.068h.871l2.064 5.24 2.064-5.24h.872l-2.459 6.068zm9.26 0h-.761v-6.068h.761v6.068zm8.654.11c-1.055 0-1.843-.401-2.348-.965l.459-.582a2.532 2.532 0 0 0 1.917.873c1.091 0 1.44-.582 1.44-1.055 0-1.565-3.623-.692-3.623-2.857 0-1 .899-1.692 2.11-1.692.926 0 1.65.318 2.164.855l-.458.555c-.459-.51-1.101-.728-1.77-.728-.725 0-1.257.391-1.257.964 0 1.365 3.623.583 3.623 2.848 0 .874-.605 1.783-2.257 1.783zm9.398-.11h-.762v-6.068h.762v6.068zm9.461.11c-1.807 0-3.036-1.347-3.036-3.14 0-1.792 1.23-3.138 3.036-3.138 1.807 0 3.046 1.346 3.046 3.138 0 1.793-1.239 3.14-3.046 3.14zm0-.674c1.367 0 2.257-1.055 2.257-2.466 0-1.419-.89-2.465-2.257-2.465-1.376 0-2.247 1.046-2.247 2.465 0 1.41.871 2.466 2.247 2.466zm14.535.564h-.734l-3.568-4.84v4.84h-.762v-6.068h.78l3.522 4.74v-4.74h.762v6.068z"/>
        <path stroke="#868193" stroke-width=".5" d="M59.692 56.077h11.846M151.23 56.077h12.27"/>
        <text fill="#0E0427" font-family="ProximaNova-Regular, Proxima Nova" font-size="5.384" letter-spacing="1.615" opacity=".5" transform="translate(55.385 20)">
            <tspan x="19.385" y="37.308">SAFETY SOLUTION</tspan> <tspan x="89.962" y="37.308">S</tspan>
        </text>
    </g>
</svg>
